<svg width="344" height="141" viewBox="0 0 344 141" fill="none" xmlns="http://www.w3.org/2000/svg">
<path d="M31.3398 55.3527H62.6776C62.6776 42.6279 72.557 32.2361 85.0921 31.2817V0C55.2415 0.954357 31.3398 25.4495 31.3398 55.3527Z" fill="#78E6BE"/>
<path d="M31.3378 55.3535H0C0 102.117 38.1365 140.185 84.9838 140.185V108.904C55.3457 108.904 31.3378 84.9386 31.3378 55.3535Z" fill="white"/>
<path d="M339.714 25.2539C340.442 25.2539 341.079 25.4355 341.807 25.7988C342.444 26.1621 342.99 26.707 343.353 27.3427C343.717 27.9784 343.899 28.7049 343.899 29.4314C343.899 30.1579 343.717 30.7936 343.353 31.5202C342.99 32.1559 342.444 32.7008 341.807 33.064C341.17 33.4273 340.442 33.6089 339.714 33.6089C338.986 33.6089 338.259 33.4273 337.622 33.064C336.985 32.7008 336.439 32.1559 336.075 31.5202C335.711 30.8845 335.529 30.1579 335.529 29.4314C335.529 28.7049 335.711 27.9784 336.075 27.3427C336.439 26.707 336.985 26.1621 337.622 25.7988C338.35 25.4355 338.986 25.2539 339.714 25.2539ZM339.714 25.9804C339.168 25.9804 338.532 26.1621 337.986 26.4345C337.44 26.707 336.985 27.161 336.712 27.7059C336.439 28.2508 336.257 28.8865 336.257 29.4314C336.257 30.0671 336.439 30.612 336.712 31.1569C336.985 31.7018 337.44 32.1559 337.986 32.4283C338.532 32.7008 339.077 32.8824 339.714 32.8824C340.351 32.8824 340.897 32.7008 341.443 32.4283C341.989 32.1559 342.444 31.7018 342.717 31.1569C342.989 30.612 343.171 30.0671 343.171 29.4314C343.171 28.7957 342.989 28.2508 342.717 27.7059C342.444 27.161 341.989 26.707 341.443 26.4345C340.806 26.1621 340.26 25.9804 339.714 25.9804ZM337.895 31.7926V27.3427H339.441C339.987 27.3427 340.351 27.3427 340.624 27.4335C340.897 27.5243 341.079 27.7059 341.17 27.8876C341.352 28.0692 341.352 28.3416 341.352 28.5233C341.352 28.8865 341.261 29.159 340.988 29.3406C340.715 29.613 340.442 29.7039 340.078 29.7039C340.26 29.7947 340.351 29.8855 340.442 29.9763C340.624 30.1579 340.806 30.4304 341.079 30.8845L341.625 31.7926H340.715L340.351 31.0661C340.078 30.5212 339.805 30.1579 339.623 30.0671C339.532 29.9763 339.259 29.8855 339.077 29.8855H338.623V31.7926H337.895ZM338.623 29.2498H339.532C339.987 29.2498 340.26 29.159 340.351 29.0681C340.533 28.9773 340.624 28.7957 340.624 28.6141C340.624 28.5233 340.624 28.3416 340.533 28.2508C340.442 28.16 340.351 28.0692 340.26 27.9784C340.169 27.8876 339.896 27.8876 339.532 27.8876H338.714V29.2498H338.623Z" fill="white"/>
<path d="M118.096 49.1364C115.913 48.1374 114.184 46.5935 112.911 44.6864C111.637 42.7793 111 40.5089 111 37.9661C111 35.4233 111.637 33.1529 112.911 31.2458C114.184 29.3386 115.913 27.8856 118.096 26.7958C120.28 25.7968 122.645 25.252 125.284 25.252C127.831 25.252 130.287 25.7968 132.653 26.7958V31.7907C130.742 30.5192 128.286 29.8835 125.284 29.8835C123.555 29.8835 122.008 30.2468 120.644 30.8825C119.279 31.5182 118.096 32.4264 117.277 33.6978C116.459 34.8784 116.004 36.3314 116.004 37.9661C116.004 39.6008 116.368 41.0538 117.187 42.3252C118.005 43.5966 119.097 44.5048 120.462 45.1405C121.826 45.7762 123.464 46.1395 125.102 46.1395C127.649 46.1395 130.105 45.5038 132.471 44.3232V49.2272C130.287 50.1353 127.831 50.5894 125.102 50.5894C122.736 50.6802 120.28 50.1353 118.096 49.1364Z" fill="white"/>
<path d="M140.112 49.0456C138.202 47.9558 136.655 46.4119 135.563 44.5048C134.472 42.5977 133.926 40.4181 133.926 37.9661C133.926 35.5141 134.472 33.3345 135.563 31.4274C136.655 29.5203 138.111 27.9764 140.112 26.8866C142.023 25.7968 144.206 25.252 146.663 25.252C149.119 25.252 151.303 25.7968 153.213 26.8866C155.124 27.9764 156.67 29.4295 157.762 31.4274C158.854 33.3345 159.4 35.5141 159.4 37.9661C159.4 40.4181 158.854 42.5977 157.762 44.5048C156.67 46.4119 155.124 47.9558 153.213 49.0456C151.303 50.1354 149.119 50.6802 146.663 50.6802C144.206 50.6802 142.023 50.1354 140.112 49.0456ZM150.666 45.0497C151.848 44.3232 152.758 43.415 153.395 42.1436C154.032 40.963 154.396 39.51 154.396 37.9661C154.396 36.4222 154.032 35.06 153.395 33.8794C152.758 32.608 151.848 31.6998 150.666 30.9733C149.483 30.2468 148.209 29.8835 146.663 29.8835C145.116 29.8835 143.842 30.2468 142.66 30.9733C141.477 31.6998 140.567 32.608 139.93 33.8794C139.293 35.06 139.021 36.5131 139.021 37.9661C139.021 39.51 139.293 40.963 139.93 42.1436C140.567 43.415 141.477 44.3232 142.66 45.0497C143.842 45.7762 145.116 46.1395 146.663 46.1395C148.209 46.1395 149.574 45.6854 150.666 45.0497Z" fill="white"/>
<path d="M200.612 50.315H195.427L190.241 26.3398L185.328 50.315H175.684L170.772 26.3398L165.677 50.315H160.582L166.132 25.6133H175.502L180.597 49.5885L185.601 25.6133H194.972L200.612 50.315Z" fill="white"/>
<path d="M221.444 26.6122C222.809 27.3388 223.809 28.2469 224.537 29.5183C225.265 30.7898 225.629 32.2428 225.629 33.8775C225.629 35.5121 225.265 36.9652 224.537 38.2366C223.809 39.508 222.809 40.507 221.444 41.1427C220.079 41.8692 218.624 42.2325 216.895 42.2325H208.889V50.315H204.158V25.6133H216.895C218.624 25.6133 220.079 25.9765 221.444 26.6122ZM219.443 36.6927C220.17 35.9662 220.534 35.0581 220.534 33.8775C220.534 32.7877 220.17 31.8795 219.443 31.153C218.715 30.4265 217.805 30.0632 216.622 30.0632H208.889V37.8733H216.622C217.805 37.7825 218.715 37.4193 219.443 36.6927Z" fill="white"/>
<path d="M232.636 49.0456C230.725 47.9558 229.179 46.4119 228.087 44.5048C226.995 42.5977 226.449 40.4181 226.449 37.9661C226.449 35.5141 226.995 33.3345 228.087 31.4274C229.179 29.5203 230.634 27.9764 232.636 26.8866C234.546 25.7968 236.73 25.252 239.186 25.252C241.643 25.252 243.826 25.7968 245.737 26.8866C247.647 27.9764 249.194 29.4295 250.285 31.4274C251.377 33.3345 251.923 35.5141 251.923 37.9661C251.923 40.4181 251.377 42.5977 250.285 44.5048C249.194 46.4119 247.647 47.9558 245.737 49.0456C243.826 50.1354 241.643 50.6802 239.186 50.6802C236.821 50.6802 234.637 50.1354 232.636 49.0456ZM243.28 45.0497C244.463 44.3232 245.373 43.415 246.01 42.1436C246.646 40.963 247.01 39.51 247.01 37.9661C247.01 36.4222 246.646 35.06 246.01 33.8794C245.373 32.608 244.463 31.6998 243.28 30.9733C242.097 30.2468 240.824 29.8835 239.277 29.8835C237.73 29.8835 236.457 30.2468 235.274 30.9733C234.091 31.6998 233.182 32.608 232.545 33.8794C231.908 35.06 231.635 36.5131 231.635 37.9661C231.635 39.51 231.908 40.963 232.545 42.1436C233.182 43.415 234.091 44.3232 235.274 45.0497C236.457 45.7762 237.73 46.1395 239.277 46.1395C240.733 46.0487 242.097 45.6854 243.28 45.0497Z" fill="white"/>
<path d="M259.647 49.3161C258.009 48.4079 256.736 47.1365 255.735 45.5926C254.825 44.0488 254.279 42.2325 254.279 40.2345V25.6133H259.01V40.507C259.01 41.5968 259.283 42.5957 259.829 43.4131C260.375 44.2304 261.103 44.9569 262.012 45.411C262.922 45.8651 263.923 46.1375 265.106 46.1375C266.197 46.1375 267.289 45.8651 268.199 45.411C269.109 44.9569 269.837 44.2304 270.382 43.4131C270.928 42.5957 271.201 41.5968 271.201 40.507V25.6133H275.932V40.1437C275.932 42.1417 275.477 43.958 274.567 45.5018C273.658 47.0457 272.384 48.3171 270.655 49.2253C269.018 50.1334 267.198 50.5875 265.106 50.5875C263.104 50.6783 261.285 50.2242 259.647 49.3161Z" fill="white"/>
<path d="M303.327 25.6133V50.315H293.774L285.04 26.3398V50.315H280.4V25.6133H290.044L298.687 49.5885V25.6133H303.327Z" fill="white"/>
<path d="M325.697 27.1571C327.699 28.1561 329.336 29.6092 330.519 31.5163C331.702 33.4234 332.247 35.5121 332.247 37.9642C332.247 40.4162 331.702 42.5049 330.519 44.412C329.336 46.3192 327.699 47.7722 325.697 48.7712C323.696 49.7701 321.421 50.315 318.965 50.315H308.957V25.6133H318.965C321.421 25.6133 323.605 26.1582 325.697 27.1571ZM323.15 44.8661C324.423 44.2304 325.424 43.2314 326.152 42.0508C326.88 40.8702 327.244 39.4172 327.244 37.8733C327.244 36.3295 326.88 34.9673 326.152 33.7867C325.424 32.6061 324.423 31.6979 323.15 30.9714C321.876 30.3357 320.511 29.9724 318.874 29.9724H313.688V45.7743H318.874C320.511 45.8651 321.876 45.5926 323.15 44.8661Z" fill="white"/>
<path d="M131.906 105.719C132.932 106.279 133.724 107.036 134.284 107.992C134.866 108.948 135.158 110.02 135.158 111.209C135.158 112.584 134.831 113.808 134.179 114.88C133.526 115.929 132.617 116.757 131.451 117.363C130.309 117.946 128.992 118.237 127.5 118.237H112.779V93.586H127.185C128.654 93.586 129.959 93.8657 131.102 94.4252C132.267 94.9846 133.176 95.7772 133.829 96.8029C134.482 97.8052 134.808 98.9475 134.808 100.23C134.808 101.395 134.552 102.456 134.039 103.412C133.526 104.344 132.815 105.113 131.906 105.719ZM117.535 103.936H126.766C127.652 103.936 128.374 103.656 128.934 103.097C129.493 102.514 129.773 101.78 129.773 100.894C129.773 100.008 129.493 99.2855 128.934 98.726C128.374 98.1433 127.652 97.8519 126.766 97.8519H117.535V103.936ZM127.115 113.971C128.001 113.971 128.724 113.68 129.283 113.097C129.843 112.514 130.123 111.768 130.123 110.859C130.123 109.927 129.843 109.169 129.283 108.587C128.724 108.004 128.001 107.712 127.115 107.712H117.535V113.971H127.115Z" fill="white"/>
<path d="M149.328 118.587C146.881 118.587 144.689 118.051 142.755 116.978C140.843 115.883 139.351 114.379 138.279 112.468C137.207 110.533 136.67 108.342 136.67 105.894C136.67 103.446 137.207 101.267 138.279 99.3554C139.351 97.4206 140.843 95.9171 142.755 94.8448C144.689 93.7725 146.881 93.2363 149.328 93.2363C151.776 93.2363 153.955 93.7725 155.867 94.8448C157.802 95.9171 159.305 97.4206 160.378 99.3554C161.473 101.267 162.021 103.446 162.021 105.894C162.021 108.342 161.473 110.533 160.378 112.468C159.305 114.379 157.802 115.883 155.867 116.978C153.955 118.051 151.776 118.587 149.328 118.587ZM149.328 114.006C150.843 114.006 152.172 113.657 153.314 112.957C154.48 112.258 155.377 111.302 156.007 110.09C156.659 108.855 156.986 107.456 156.986 105.894C156.986 104.379 156.659 103.015 156.007 101.803C155.377 100.568 154.48 99.6002 153.314 98.9009C152.172 98.2015 150.843 97.8519 149.328 97.8519C147.813 97.8519 146.473 98.2015 145.307 98.9009C144.165 99.6002 143.279 100.568 142.65 101.803C142.02 103.015 141.706 104.379 141.706 105.894C141.706 107.456 142.02 108.855 142.65 110.09C143.279 111.302 144.165 112.258 145.307 112.957C146.473 113.657 147.813 114.006 149.328 114.006Z" fill="white"/>
<path d="M188.136 93.9357V118.587H178.66L169.918 94.635V118.587H165.303V93.9357H174.919L183.52 117.888V93.9357H188.136Z" fill="white"/>
<path d="M201.804 93.9357C204.275 93.9357 206.524 94.4485 208.552 95.4742C210.581 96.4998 212.177 97.9451 213.343 99.81C214.532 101.675 215.126 103.819 215.126 106.244C215.126 108.668 214.532 110.824 213.343 112.713C212.177 114.577 210.581 116.023 208.552 117.048C206.524 118.074 204.275 118.587 201.804 118.587H191.874V93.9357H201.804ZM201.804 114.181C203.366 114.181 204.776 113.855 206.035 113.202C207.294 112.526 208.284 111.582 209.007 110.37C209.73 109.158 210.091 107.782 210.091 106.244C210.091 104.705 209.73 103.342 209.007 102.153C208.284 100.941 207.294 100.008 206.035 99.3554C204.776 98.7027 203.366 98.3764 201.804 98.3764H196.629V114.181H201.804Z" fill="white"/>
<path d="M226.286 118.745C224.655 118.745 222.965 118.582 221.216 118.255C219.491 117.929 218.035 117.463 216.846 116.857V111.926C218.104 112.649 219.666 113.209 221.531 113.605C223.419 113.978 225.191 114.164 226.846 114.164C229.154 114.164 230.762 113.919 231.671 113.43C232.58 112.94 233.035 112.334 233.035 111.612C233.035 111.029 232.778 110.539 232.266 110.143C231.753 109.747 231.112 109.432 230.343 109.199C229.573 108.966 228.489 108.686 227.091 108.36C225.039 107.894 223.349 107.427 222.021 106.961C220.715 106.472 219.585 105.737 218.629 104.758C217.673 103.779 217.195 102.486 217.195 100.877C217.195 99.5485 217.545 98.3247 218.244 97.2058C218.967 96.0869 220.132 95.1778 221.741 94.4785C223.373 93.7558 225.482 93.3945 228.07 93.3945C229.445 93.3945 230.867 93.4994 232.336 93.7092C233.804 93.8957 235.028 94.1871 236.007 94.5834V99.5835C235.098 99.1173 233.816 98.7443 232.161 98.4646C230.506 98.1615 228.967 98.01 227.545 98.01C225.541 98.01 224.13 98.2315 223.314 98.6744C222.522 99.1173 222.126 99.6651 222.126 100.318C222.126 100.877 222.37 101.343 222.86 101.716C223.349 102.066 223.967 102.357 224.713 102.591C225.482 102.8 226.543 103.057 227.895 103.36C229.97 103.826 231.683 104.304 233.035 104.793C234.387 105.26 235.552 105.994 236.531 106.996C237.511 107.999 238 109.327 238 110.982C238 112.474 237.58 113.803 236.741 114.968C235.925 116.134 234.643 117.055 232.895 117.731C231.147 118.407 228.944 118.745 226.286 118.745Z" fill="white"/>
<path d="M218.13 64.1824V69.7581H231.79V74.1489H218.13V79.9337H232.487V84.3245H213.391V59.7567H232.487V64.1824H218.13Z" fill="white"/>
<path d="M245.469 84.673C243.843 84.673 242.159 84.5104 240.416 84.1851C238.697 83.8599 237.245 83.3952 236.06 82.7912V77.8776C237.315 78.5978 238.871 79.1554 240.73 79.5503C242.612 79.922 244.377 80.1079 246.027 80.1079C248.327 80.1079 249.93 79.864 250.836 79.3761C251.742 78.8882 252.195 78.2842 252.195 77.564C252.195 76.9832 251.939 76.4953 251.428 76.1004C250.917 75.7054 250.278 75.3918 249.511 75.1595C248.745 74.9272 247.665 74.6484 246.271 74.3231C244.226 73.8585 242.542 73.3939 241.218 72.9292C239.917 72.4413 238.79 71.7095 237.837 70.7338C236.885 69.758 236.409 68.4687 236.409 66.8657C236.409 65.5414 236.757 64.3218 237.454 63.2066C238.174 62.0915 239.336 61.1855 240.939 60.4885C242.565 59.7683 244.668 59.4082 247.246 59.4082C248.617 59.4082 250.034 59.5127 251.498 59.7218C252.961 59.9077 254.181 60.1981 255.157 60.593V65.5763C254.251 65.1117 252.973 64.7399 251.324 64.4612C249.674 64.1591 248.141 64.0081 246.724 64.0081C244.726 64.0081 243.32 64.2288 242.507 64.6702C241.717 65.1117 241.322 65.6576 241.322 66.3081C241.322 66.8657 241.566 67.3303 242.054 67.702C242.542 68.0505 243.158 68.3409 243.901 68.5732C244.668 68.7823 245.725 69.0379 247.072 69.3399C249.14 69.8045 250.847 70.2808 252.195 70.7686C253.542 71.2333 254.704 71.9651 255.68 72.9641C256.655 73.963 257.143 75.2873 257.143 76.9367C257.143 78.4236 256.725 79.7478 255.889 80.9094C255.076 82.071 253.798 82.9887 252.055 83.6624C250.313 84.3361 248.118 84.673 245.469 84.673Z" fill="white"/>
<path d="M279.409 64.1824H270.871V84.3245H266.132V64.1824H257.594V59.7567H279.409V64.1824Z" fill="white"/>
<path d="M295.935 79.0625H283.494L281.752 84.3245H276.803L285.376 59.7567H294.332L302.904 84.3245H297.677L295.935 79.0625ZM294.436 74.6368L289.732 60.4536L284.992 74.6368H294.436Z" fill="white"/>
<path d="M321.713 64.1824H313.176V84.3245H308.436V64.1824H299.898V59.7567H321.713V64.1824Z" fill="white"/>
<path d="M329.643 64.1824V69.7581H343.303V74.1489H329.643V79.9337H344V84.3245H324.903V59.7567H344V64.1824H329.643Z" fill="white"/>
<path d="M135.023 83.8139H127.844L117.599 74.5792V83.8139H112.859V59.2461H125.649C127.275 59.2461 128.715 59.5946 129.97 60.2915C131.224 60.9653 132.2 61.9178 132.897 63.1491C133.617 64.3571 133.977 65.751 133.977 67.3308C133.977 68.8409 133.64 70.1884 132.967 71.3732C132.293 72.5348 131.352 73.4408 130.144 74.0913C128.936 74.7418 127.554 75.0671 125.997 75.0671L124.603 75.0322L135.023 83.8139ZM117.599 71.0596H125.265C126.334 71.0596 127.217 70.7111 127.914 70.0141C128.611 69.3172 128.959 68.4227 128.959 67.3308C128.959 66.2622 128.611 65.391 127.914 64.7172C127.217 64.0203 126.334 63.6718 125.265 63.6718H117.599V71.0596Z" fill="white"/>
<path d="M141.778 63.6718V69.2475H155.438V73.6383H141.778V79.4231H156.135V83.8139H137.039V59.2461H156.135V63.6718H141.778Z" fill="white"/>
<path d="M177.55 78.5519H165.11L163.367 83.8139H158.419L166.992 59.2461H175.947L184.52 83.8139H179.293L177.55 78.5519ZM176.052 74.1262L171.348 59.9431L166.608 74.1262H176.052Z" fill="white"/>
<path d="M203.81 79.4231V83.8139H186.386V59.2461H191.125V79.4231H203.81Z" fill="white"/>
</svg>
