<?xml version="1.0" encoding="UTF-8"?>
<svg xmlns="http://www.w3.org/2000/svg" width="438" height="142" viewBox="0 0 438 142" fill="none">
  <path d="M11.8523 43.9166C4.15224 43.9166 0 38.8399 0 29.1606H5.53632C5.53632 36.0907 7.4022 39.2 12.0362 39.2C16.1885 39.2 18.1682 36.6879 18.1682 32.6827C18.1682 27.9661 15.3388 26.227 11.1602 23.8994C6.56124 21.3347 1.26144 18.9983 1.26144 10.9967C1.26144 2.81066 6.56124 0 12.264 0C19.0004 0 23.214 3.82075 23.214 12.0683H17.958C17.958 7.29016 16.2761 4.66394 12.299 4.66394C9.04908 4.66394 6.34224 6.42061 6.34224 10.8123C6.34224 15.6519 9.95136 17.4437 13.9897 19.4814C18.834 22.0461 23.5294 24.4967 23.5294 32.147C23.5294 39.7972 18.7201 43.9166 11.8523 43.9166Z" fill="white"></path>
  <path d="M62.2749 21.9583C62.2749 36.0643 59.5593 43.9166 49.1349 43.9166C38.7105 43.9166 35.9949 36.0116 35.9949 21.9583C35.9949 7.90499 38.7105 0 49.1349 0C59.5593 0 62.2749 7.90499 62.2749 21.9583ZM56.94 23.0035C56.94 12.5514 56.5196 5.01528 49.1787 5.01528C41.8378 5.01528 41.356 12.4899 41.356 20.9131C41.356 31.3652 41.7765 38.9013 49.1787 38.9013C56.5809 38.9013 56.94 31.4267 56.94 23.0035Z" fill="white"></path>
  <path d="M100.53 1.01886V29.9336C100.53 38.3041 97.1046 43.9166 88.2658 43.9166C79.4269 43.9166 75.8003 38.3656 75.8003 29.9336V1.01886H80.9161V29.5734C80.9161 35.4319 82.7207 39.1385 88.4935 39.1385C93.8547 39.1385 95.5015 35.792 95.5015 30.2937V1.01886H100.53Z" fill="white"></path>
  <path d="M140.607 5.62132H129.42V42.845H124.243V5.62132H113.048V1.01886H140.607V5.62132Z" fill="white"></path>
  <path d="M179.23 42.845H174.053V24.0839H158.556V42.845H153.379V1.01886H158.556V19.4638H174.017V1.01886H179.195L179.23 42.845Z" fill="white"></path>
  <path d="M229.249 43.9166C218.229 43.9166 216.547 33.9388 216.547 21.6333C216.547 9.32789 218.413 0 229.731 0C238.211 0 241.04 5.31391 241.285 14.1587H235.802C235.802 9.14344 235.145 4.77813 229.608 4.77813C222.083 4.77813 221.908 12.6831 221.908 20.8516C221.908 31.3916 221.908 39.077 229.67 39.077C234.601 39.077 236.108 35.792 236.108 28.1418H241.583C241.583 38.0054 238.097 43.9166 229.249 43.9166Z" fill="white"></path>
  <path d="M280.32 21.9583C280.32 36.0643 277.613 43.9166 267.18 43.9166C256.747 43.9166 254.04 36.0116 254.04 21.9583C254.04 7.90499 256.747 0 267.18 0C277.613 0 280.32 7.90499 280.32 21.9583ZM274.959 22.9772C274.959 12.525 274.538 4.98893 267.198 4.98893C259.857 4.98893 259.375 12.4635 259.375 20.8867C259.375 31.3389 259.795 38.875 267.198 38.875C274.6 38.875 274.941 31.4267 274.941 23.0035L274.959 22.9772Z" fill="white"></path>
  <path d="M318.557 1.01886V29.9336C318.557 38.3041 315.132 43.9166 306.293 43.9166C297.455 43.9166 293.837 38.3656 293.837 29.9336V1.01886H298.953V29.5734C298.953 35.4319 300.757 39.1385 306.53 39.1385C311.891 39.1385 313.538 35.792 313.538 30.2937V1.01886H318.557Z" fill="white"></path>
  <path d="M359.624 42.845H354.368L338.802 10.3995V42.845H333.809V1.01886H340.011L354.631 32.5686V1.01886H359.624V42.845Z" fill="white"></path>
  <path d="M399.99 5.62132H388.804V42.845H383.627V5.62132H372.431V1.01886H399.99V5.62132Z" fill="white"></path>
  <path d="M427.111 42.8451H421.812V26.5257L410.923 1.05402H416.757L424.702 22.0813L432.586 1.05402H438L427.111 26.5257V42.8451Z" fill="white"></path>
  <path d="M252.043 68.7998H244.798V142H289.509V135.413H252.043V68.7998Z" fill="#9CDCD9"></path>
  <path d="M289.509 75.3873H327.011V142H334.36V80.2181V75.3873V68.7998H289.509V75.3873Z" fill="#9CDCD9"></path>
  <path d="M359.624 68.7998H339.345V75.3873H359.624V68.7998Z" fill="#9CDCD9"></path>
  <path d="M430.659 68.7998V101.737H390.775V68.7998H383.53V142H390.775V108.536H430.659V142H438V68.7998H430.659Z" fill="#9CDCD9"></path>
  <path d="M182.444 68.7998L152.748 142H160.72L168.901 121.289H204.379L212.561 142H220.857L191.073 68.7998H182.444ZM171.529 114.701L186.64 76.4149L201.769 114.684L171.529 114.701Z" fill="#9CDCD9"></path>
  <path d="M88.476 108.325H123.113V101.632H88.476V75.3873H126.783V68.7998H81.2402V142H128.781V135.413H88.476V108.325Z" fill="#9CDCD9"></path>
  <path d="M47.12 101.737H7.24452V68.7998H0V142H7.24452V108.536H47.12V142H54.4697V68.7998H47.12V101.737Z" fill="#9CDCD9"></path>
  <path d="M279.882 102.493C281.258 101.802 282.692 101.232 284.166 100.789C288.389 99.2776 292.971 99.0847 297.306 100.235C297.649 98.8398 297.875 97.4177 297.98 95.9842C292.213 94.5635 286.14 95.0947 280.706 97.4949L279.225 98.1273L279.427 99.7259C279.54 100.692 279.689 101.597 279.882 102.493Z" fill="white"></path>
  <path d="M302.597 97.4949C301.764 97.1435 300.941 96.8361 300.118 96.5638C299.986 98.0452 299.737 99.5137 299.373 100.956C298.921 103.533 298.032 106.013 296.745 108.29C295.783 109.963 294.605 111.501 293.241 112.866L293.732 113.296C294.669 114.089 295.668 114.806 296.719 115.439C300.761 111.146 303.288 105.641 303.911 99.7698L304.112 98.1712L302.597 97.4949Z" fill="white"></path>
  <path d="M291.235 113.929C289.394 112.306 287.826 110.396 286.592 108.272C285.638 106.617 284.899 104.846 284.394 103.002C283.025 103.447 281.695 104.002 280.417 104.662C282.096 110.343 285.593 115.313 290.368 118.803L291.656 119.769L292.935 118.803C293.697 118.224 294.424 117.626 295.107 117.003C293.718 116.109 292.421 115.079 291.235 113.929V113.929Z" fill="white"></path>
</svg>
